<svg width="274" height="397" viewBox="0 0 274 397" fill="none" xmlns="http://www.w3.org/2000/svg">
<rect x="1.5" y="1.5" width="271" height="394" fill="#190E49"/>
<rect x="1.5" y="1.5" width="271" height="394" stroke="#DA9920" stroke-width="3" stroke-dasharray="90 20"/>
<rect x="11.5" y="12.5" width="253" height="373" stroke="#DA9920" stroke-width="3"/>
<path d="M225.5 15L227.63 36.3586L244.238 22.7617L230.641 39.3704L252 41.5L230.641 43.6296L244.238 60.2383L227.63 46.6414L225.5 68L223.37 46.6414L206.762 60.2383L220.359 43.6296L199 41.5L220.359 39.3704L206.762 22.7617L223.37 36.3586L225.5 15Z" fill="#DA9920"/>
<path d="M225.5 321L227.63 342.359L244.238 328.762L230.641 345.37L252 347.5L230.641 349.63L244.238 366.238L227.63 352.641L225.5 374L223.37 352.641L206.762 366.238L220.359 349.63L199 347.5L220.359 345.37L206.762 328.762L223.37 342.359L225.5 321Z" fill="#DA9920"/>
<path d="M48.5 321L50.6296 342.359L67.2383 328.762L53.6414 345.37L75 347.5L53.6414 349.63L67.2383 366.238L50.6296 352.641L48.5 374L46.3704 352.641L29.7617 366.238L43.3586 349.63L22 347.5L43.3586 345.37L29.7617 328.762L46.3704 342.359L48.5 321Z" fill="#DA9920"/>
<path d="M48.5 15L50.6296 36.3586L67.2383 22.7617L53.6414 39.3704L75 41.5L53.6414 43.6296L67.2383 60.2383L50.6296 46.6414L48.5 68L46.3704 46.6414L29.7617 60.2383L43.3586 43.6296L22 41.5L43.3586 39.3704L29.7617 22.7617L46.3704 36.3586L48.5 15Z" fill="#DA9920"/>
<circle cx="93.5" cy="41.5" r="4" stroke="#DA9920"/>
<circle cx="106.5" cy="41.5" r="4.5" fill="#DA9920"/>
<circle cx="82.5" cy="41.5" r="2.5" fill="#DA9920"/>
<circle cx="18.5" cy="86.5" r="2.5" fill="#DA9920"/>
<circle cx="93.5" cy="347.5" r="4" stroke="#DA9920"/>
<circle cx="106.5" cy="347.5" r="4.5" fill="#DA9920"/>
<circle cx="82.5" cy="347.5" r="2.5" fill="#DA9920"/>
<circle cx="4.5" cy="4.5" r="4" transform="matrix(-1 0 0 1 185 37)" stroke="#DA9920"/>
<circle cx="4.5" cy="4.5" r="4" transform="matrix(-1 0 0 1 183 78)" stroke="#DA9920"/>
<circle cx="4.5" cy="4.5" r="4" transform="matrix(-1 0 0 1 100 79)" stroke="#DA9920"/>
<circle cx="4.5" cy="4.5" r="4" transform="matrix(-1 0 0 1 64 100)" stroke="#DA9920"/>
<circle cx="4.5" cy="4.5" r="4" transform="matrix(-1 0 0 1 23 73)" stroke="#DA9920"/>
<circle cx="256.5" cy="88.5" r="2.5" fill="#DA9920"/>
<circle cx="2.5" cy="2.5" r="2.5" transform="matrix(1 0 0 -1 254 308)" fill="#DA9920"/>
<circle cx="4.5" cy="4.5" r="4" transform="matrix(-1 0 0 1 261 74)" stroke="#DA9920"/>
<circle cx="256.5" cy="315.5" r="4" transform="rotate(180 256.5 315.5)" stroke="#DA9920"/>
<circle cx="2.5" cy="2.5" r="2.5" transform="matrix(1 0 0 -1 16 307)" fill="#DA9920"/>
<circle cx="18.5" cy="314.5" r="4" transform="rotate(180 18.5 314.5)" stroke="#DA9920"/>
<circle cx="4.5" cy="4.5" r="4" transform="matrix(-1 0 0 1 219 100)" stroke="#DA9920"/>
<circle cx="4.5" cy="4.5" r="4.5" transform="matrix(-1 0 0 1 172 37)" fill="#DA9920"/>
<circle cx="4.5" cy="4.5" r="4.5" transform="matrix(-1 0 0 1 202 87)" fill="#DA9920"/>
<circle cx="4.5" cy="4.5" r="4.5" transform="matrix(-1 0 0 1 163 73)" fill="#DA9920"/>
<circle cx="4.5" cy="4.5" r="4.5" transform="matrix(-1 0 0 1 120 73)" fill="#DA9920"/>
<circle cx="4.5" cy="4.5" r="4.5" transform="matrix(-1 0 0 1 80 87)" fill="#DA9920"/>
<circle cx="178.5" cy="307.5" r="4" transform="rotate(180 178.5 307.5)" stroke="#DA9920"/>
<circle cx="95.5" cy="306.5" r="4" transform="rotate(180 95.5 306.5)" stroke="#DA9920"/>
<circle cx="59.5" cy="285.5" r="4" transform="rotate(180 59.5 285.5)" stroke="#DA9920"/>
<circle cx="214.5" cy="285.5" r="4" transform="rotate(180 214.5 285.5)" stroke="#DA9920"/>
<circle cx="197.5" cy="298.5" r="4.5" transform="rotate(180 197.5 298.5)" fill="#DA9920"/>
<circle cx="158.5" cy="312.5" r="4.5" transform="rotate(180 158.5 312.5)" fill="#DA9920"/>
<circle cx="115.5" cy="312.5" r="4.5" transform="rotate(180 115.5 312.5)" fill="#DA9920"/>
<circle cx="75.5" cy="298.5" r="4.5" transform="rotate(180 75.5 298.5)" fill="#DA9920"/>
<circle cx="2.5" cy="2.5" r="2.5" transform="matrix(-1 0 0 1 194 39)" fill="#DA9920"/>
<circle cx="4.5" cy="4.5" r="4" transform="matrix(-1 0 0 1 185 343)" stroke="#DA9920"/>
<circle cx="4.5" cy="4.5" r="4.5" transform="matrix(-1 0 0 1 172 343)" fill="#DA9920"/>
<circle cx="2.5" cy="2.5" r="2.5" transform="matrix(-1 0 0 1 194 345)" fill="#DA9920"/>
<path d="M87.1775 143.173C101.644 129.065 121.464 120.86 143.105 124.456C153.293 128.432 160.615 131.233 165.64 133.279C168.165 134.307 170.077 135.131 171.463 135.807C172.163 136.148 172.69 136.433 173.076 136.666C172.888 136.729 172.676 136.795 172.439 136.863C171.415 137.158 170.071 137.468 168.411 137.854C166.767 138.235 164.851 138.684 162.744 139.246C154.313 141.496 142.741 145.597 132.416 154.887C122.064 164.201 113.075 178.631 109.652 201.337L109.604 201.654L109.691 201.964C118.91 234.967 148.351 246.556 163.553 252.892C167.452 254.516 170.217 255.719 171.652 256.795C172.217 257.218 172.364 257.471 172.4 257.547C172.372 257.619 172.266 257.814 171.869 258.143C171.227 258.675 170.106 259.322 168.336 260.096C166.587 260.86 164.293 261.711 161.373 262.68C155.567 264.606 147.387 266.962 136.301 269.998C97.1721 269.885 63.6355 236.48 63.6355 197.061C63.6355 177.341 72.6628 157.329 87.1775 143.173Z" stroke="#DA9920" stroke-width="3"/>
<path d="M58 273.5L74.5 287L93 297.5L112.5 304L136.5 307L158.5 305L182.5 297.5L200 287L215 273.5" stroke="#DA9920" stroke-width="3"/>
<path d="M58 116.5L74.5 103L93 92.5L112.5 86L136.5 83L158.5 85L182.5 92.5L200 103L215 116.5" stroke="#DA9920" stroke-width="3"/>
<path d="M96 97L107 93L116.5 90.5L125.618 89.5224L138 88L149.35 89.0149L163 91.5L172.5 94L180 97" stroke="#DA9920" stroke-width="3"/>
<path d="M64.7258 116.582L71.4998 110.5L78.4999 105.5L86.4999 101L93.7258 97.5818" stroke="#DA9920" stroke-dasharray="2 2"/>
<path d="M210 117.44L203.226 111.358L196.226 106.358L188.226 101.858L181 98.4395" stroke="#DA9920" stroke-dasharray="2 2"/>
<path d="M96.2173 291.44L107.217 295.44L116.717 297.94L125.835 298.917L138.217 300.44L149.568 299.425L163.217 296.94L172.717 294.44L180.217 291.44" stroke="#DA9920" stroke-width="3"/>
<path d="M64.9431 271.858L71.7171 277.94L78.7172 282.94L86.7171 287.44L93.9431 290.858" stroke="#DA9920" stroke-dasharray="2 2"/>
<path d="M210.217 271L203.443 277.082L196.443 282.082L188.443 286.582L181.217 290" stroke="#DA9920" stroke-dasharray="2 2"/>
<line x1="19.5" y1="95.9921" x2="20.5" y2="284.992" stroke="#DA9920" stroke-width="3" stroke-dasharray="3 5"/>
<line x1="256.5" y1="99.9921" x2="257.5" y2="288.992" stroke="#DA9920" stroke-width="3" stroke-dasharray="3 5"/>
<line x1="256.5" y1="323" x2="256.5" y2="377" stroke="#DA9920" stroke-width="3" stroke-dasharray="3 5"/>
<line x1="209" y1="378.5" x2="71" y2="378.5" stroke="#DA9920" stroke-width="3" stroke-dasharray="3 5"/>
<line x1="206" y1="20.5" x2="69" y2="20.5" stroke="#DA9920" stroke-width="3" stroke-dasharray="3 5"/>
<line x1="19.5" y1="323" x2="19.5" y2="377" stroke="#DA9920" stroke-width="3" stroke-dasharray="3 5"/>
<line x1="19.5" y1="15" x2="19.5" y2="69" stroke="#DA9920" stroke-width="3" stroke-dasharray="3 5"/>
<line x1="257.5" y1="19" x2="257.5" y2="73" stroke="#DA9920" stroke-width="3" stroke-dasharray="3 5"/>
<circle cx="133" cy="196" r="81" stroke="#DA9920" stroke-width="2"/>
<path d="M189.76 192.156L189.854 192.887L190.578 193.014L213.228 197L190.578 200.986L189.854 201.113L189.76 201.844L186.5 227.164L183.24 201.844L183.146 201.113L182.422 200.986L159.771 197L182.422 193.014L183.146 192.887L183.24 192.156L186.5 166.835L189.76 192.156Z" stroke="#DA9920" stroke-width="2"/>
<path d="M159.025 166.293L159.179 166.821L159.707 166.975L168.412 169.5L159.707 172.025L159.179 172.179L159.025 172.707L156.5 181.412L153.975 172.707L153.821 172.179L153.293 172.025L144.587 169.5L153.293 166.975L153.821 166.821L153.975 166.293L156.5 157.587L159.025 166.293Z" stroke="#DA9920" stroke-width="2"/>
<path d="M139.701 46.5439L140.032 48.4355L141.393 47.0801L148.284 40.2158L144.125 49.249L143.359 50.9121L145.173 50.6582L154.765 49.3105L146.204 54.1289L144.655 55L146.204 55.8711L154.765 60.6885L145.173 59.3418L143.359 59.0879L144.125 60.751L148.284 69.7832L141.393 62.9199L140.032 61.5645L139.701 63.4561L138 73.1895L136.299 63.4561L135.968 61.5645L134.607 62.9199L127.715 69.7832L131.875 60.751L132.641 59.0879L130.827 59.3418L121.234 60.6885L129.796 55.8711L131.345 55L129.796 54.1289L121.234 49.3105L130.827 50.6582L132.641 50.9121L131.875 49.249L127.715 40.2158L134.607 47.0801L135.968 48.4355L136.299 46.5439L138 36.8096L139.701 46.5439Z" stroke="#DA9920" stroke-width="2"/>
<path d="M139.701 342.456L140.032 340.564L141.393 341.92L148.284 348.784L144.125 339.751L143.359 338.088L145.173 338.342L154.765 339.689L146.204 334.871L144.655 334L146.204 333.129L154.765 328.312L145.173 329.658L143.359 329.912L144.125 328.249L148.284 319.217L141.393 326.08L140.032 327.436L139.701 325.544L138 315.811L136.299 325.544L135.968 327.436L134.607 326.08L127.715 319.217L131.875 328.249L132.641 329.912L130.827 329.658L121.234 328.312L129.796 333.129L131.345 334L129.796 334.871L121.234 339.689L130.827 338.342L132.641 338.088L131.875 339.751L127.715 348.784L134.607 341.92L135.968 340.564L136.299 342.456L138 352.19L139.701 342.456Z" stroke="#DA9920" stroke-width="2"/>
<path d="M138.993 204.388L139.152 204.848L139.612 205.007L143.936 206.5L139.612 207.993L139.152 208.152L138.993 208.612L137.5 212.936L136.007 208.612L135.848 208.152L135.388 207.993L131.063 206.5L135.388 205.007L135.848 204.848L136.007 204.388L137.5 200.063L138.993 204.388Z" stroke="#DA9920" stroke-width="2"/>
</svg>
