<svg width="402" height="874" viewBox="0 0 402 874" fill="none" xmlns="http://www.w3.org/2000/svg">
<g clip-path="url(#clip0_66_4)">
<g clip-path="url(#clip1_66_4)">
<rect width="402" height="874" fill="url(#paint0_linear_66_4)"/>
<rect x="27" y="88" width="348" height="687" stroke="#FFBF36" stroke-opacity="0.63" stroke-width="4"/>
<circle cx="203" cy="548" r="135.5" fill="#B58836" fill-opacity="0.93" stroke="#C9B7FF" stroke-width="7"/>
<circle cx="203" cy="563" r="117" fill="#290D97" stroke="#FFCC34" stroke-width="3" stroke-miterlimit="3.8637" stroke-dasharray="2 2"/>
<line x1="203.5" y1="458" x2="203.5" y2="516" stroke="#E4B226"/>
<path d="M166.5 480L178.295 522.792" stroke="#E4B226"/>
<path d="M239.5 481L227.518 524.72" stroke="#E4B226"/>
<line x1="188.568" y1="468.097" x2="194.427" y2="525.801" stroke="#E4B226"/>
<line x1="216.871" y1="468.139" x2="212.125" y2="525.944" stroke="#E4B226"/>
<line x1="262.167" y1="490.222" x2="236.448" y2="542.208" stroke="#E4B226"/>
<line y1="-0.5" x2="58" y2="-0.5" transform="matrix(0.443434 0.896307 0.896307 -0.443434 144 490)" stroke="#E4B226"/>
<line y1="-0.5" x2="58" y2="-0.5" transform="matrix(0.386811 0.922159 0.922159 -0.386811 159 494)" stroke="#E4B226"/>
<line x1="247.896" y1="492.193" x2="225.461" y2="545.679" stroke="#E4B226"/>
<line y1="-0.5" x2="58" y2="-0.5" transform="matrix(0.191025 0.981585 0.981585 -0.191025 180 488)" stroke="#E4B226"/>
<line x1="227.57" y1="487.096" x2="216.491" y2="544.027" stroke="#E4B226"/>
<path d="M294 527L255.242 553.864" stroke="#E4B226"/>
<line x1="291.873" y1="542.398" x2="240.053" y2="568.45" stroke="#E4B226"/>
<line x1="279.743" y1="525.31" x2="234.311" y2="561.364" stroke="#E4B226"/>
<path d="M111.5 527.5L151.466 553.864" stroke="#E4B226"/>
<line y1="-0.5" x2="58" y2="-0.5" transform="matrix(0.893444 0.449174 0.449174 -0.893444 115.06 541.951)" stroke="#E4B226"/>
<line y1="-0.5" x2="58" y2="-0.5" transform="matrix(0.783321 0.621617 0.621617 -0.783321 127.276 524.918)" stroke="#E4B226"/>
<line x1="242.636" y1="546.9" x2="282.38" y2="504.657" stroke="#E4B226"/>
<line x1="250.965" y1="579.929" x2="299.851" y2="548.719" stroke="#E4B226"/>
<line y1="-0.5" x2="58" y2="-0.5" transform="matrix(-0.842871 -0.538116 -0.538116 0.842871 152.887 580.211)" stroke="#E4B226"/>
<path d="M250.77 578.873L308.5 573.281" stroke="#E4B226"/>
<path d="M154.73 578.592L97 573" stroke="#E4B226"/>
<line y1="-0.5" x2="58" y2="-0.5" transform="matrix(-0.685238 -0.728319 -0.728319 0.685238 160.744 548.243)" stroke="#E4B226"/>
<path d="M92 557L145.655 579.026" stroke="#E4B226"/>
<path d="M312.655 557L259 579.026" stroke="#E4B226"/>
<line x1="275.939" y1="490.28" x2="243.414" y2="538.302" stroke="#E4B226"/>
<line y1="-0.5" x2="58" y2="-0.5" transform="matrix(0.560779 0.827965 0.827965 -0.560779 128 490)" stroke="#E4B226"/>
<path d="M291 592C291 640.601 251.377 680 202.5 680C153.623 680 114 640.601 114 592C114 543.399 153.623 504 202.5 504C251.377 504 291 543.399 291 592Z" fill="#C19239"/>
<path d="M283 584.5C283 628.959 246.959 665 202.5 665C158.041 665 122 628.959 122 584.5C122 540.041 158.041 504 202.5 504C246.959 504 283 540.041 283 584.5Z" fill="url(#paint1_linear_66_4)"/>
<line x1="202" y1="148" x2="202" y2="253" stroke="#DA9920" stroke-width="2"/>
<path d="M266.942 136.663L303 225" stroke="#DA9920" stroke-width="2"/>
<path d="M135.438 136.663L100 219" stroke="#DA9920" stroke-width="2"/>
<path d="M234.992 147.871L246.5 207.5" stroke="#DA9920" stroke-width="2"/>
<path d="M290 121L329.5 172.5" stroke="#DA9920" stroke-width="2"/>
<path d="M318 110L351 143.5" stroke="#DA9920" stroke-width="2"/>
<path d="M90 110L57 143.5" stroke="#DA9920" stroke-width="2"/>
<path d="M112.811 125L75.5 169.5" stroke="#DA9920" stroke-width="2"/>
<path d="M167.008 147.871L156.5 209" stroke="#DA9920" stroke-width="2"/>
<path d="M203 259L205.701 266.299L213 269L205.701 271.701L203 279L200.299 271.701L193 269L200.299 266.299L203 259Z" fill="#AE7A19"/>
<path d="M306.319 230.684L309.984 234.571L315.322 234.319L311.434 237.984L311.686 243.322L308.021 239.434L302.684 239.686L306.571 236.021L306.319 230.684Z" fill="#4C30BC"/>
<path d="M355.201 148.096L360.031 150.38L364.909 148.201L362.625 153.031L364.805 157.909L359.974 155.625L355.096 157.805L357.38 152.974L355.201 148.096Z" fill="#AE7A19"/>
<path d="M95.9685 225.437L96.0017 230.992L100.24 234.583L94.6852 234.616L91.0944 238.855L91.0612 233.3L86.8226 229.709L92.3777 229.676L95.9685 225.437Z" fill="#4C30BC"/>
<path d="M51.9671 147.878L49.8138 152.999L52.2995 157.967L47.1786 155.814L42.2106 158.299L44.364 153.179L41.8783 148.211L46.9991 150.364L51.9671 147.878Z" fill="#AE7A19"/>
<circle cx="201" cy="-27" r="171" stroke="#B57D1C" stroke-width="2"/>
<circle cx="201" r="170" stroke="#A8751D" stroke-width="4"/>
</g>
</g>
<path d="M343.965 649.475L353.97 659.779L343.354 669.455L344.272 671.164L358.199 667.652L361.27 681.683L363.209 681.743L367.131 667.924L380.818 672.282L381.839 670.633L371.833 660.326L382.449 650.652L381.532 648.943L367.605 652.454L364.533 638.423L362.594 638.365L358.672 652.181L344.986 647.826L343.965 649.475Z" fill="url(#paint2_radial_66_4)" stroke="url(#paint3_radial_66_4)" stroke-width="2"/>
<path d="M322.016 740.516L341.322 760.775L320.464 779.433L347.662 772.843L353.391 800.236L361.283 773.386L387.87 782.121L368.564 761.862L389.422 743.204L362.224 749.794L356.495 722.401L348.603 749.251L322.016 740.516Z" fill="url(#paint4_radial_66_4)"/>
<path d="M322.016 740.516L341.322 760.775L320.464 779.433L347.662 772.843L353.391 800.236L361.283 773.386L387.87 782.121L368.564 761.862L389.422 743.204L362.224 749.794L356.495 722.401L348.603 749.251L322.016 740.516Z" fill="url(#paint5_radial_66_4)"/>
<path d="M321.292 741.206L339.886 760.717L319.797 778.687L320.699 780.405L346.894 774.057L352.412 800.441L354.35 800.517L361.951 774.657L387.558 783.072L388.594 781.431L369.999 761.918L390.089 743.95L389.187 742.232L362.991 748.578L357.474 722.196L355.536 722.12L347.934 747.978L322.328 739.566L321.292 741.206Z" stroke="url(#paint6_radial_66_4)" stroke-width="2"/>
<path d="M352.906 693.467L365.041 705.363L352.766 717.118L353.727 718.804L370.098 714.242L374.14 730.749L376.081 730.761L380.315 714.302L396.632 719.055L397.612 717.38L385.476 705.483L397.751 693.729L396.79 692.043L380.42 696.603L376.377 680.097L374.436 680.086L370.202 696.545L353.886 691.792L352.906 693.467Z" fill="url(#paint7_radial_66_4)" stroke="url(#paint8_radial_66_4)" stroke-width="2"/>
<path d="M51.9801 691.467L39.8446 703.363L52.1192 715.118L51.1584 716.804L34.788 712.242L30.7452 728.749L28.8049 728.761L24.5703 712.302L8.25349 717.055L7.27346 715.38L19.4098 703.483L7.13486 691.729L8.09516 690.043L24.4659 694.603L28.5083 678.097L30.4492 678.086L34.6841 694.545L51.0001 689.792L51.9801 691.467Z" fill="url(#paint9_radial_66_4)" stroke="url(#paint10_radial_66_4)" stroke-width="2"/>
<path d="M60.9203 647.475L50.9157 657.779L61.5319 667.455L60.6139 669.164L46.6863 665.652L43.6155 679.683L41.6769 679.743L37.7545 665.924L24.0677 670.282L23.047 668.633L33.0523 658.326L22.4363 648.652L23.3538 646.943L37.2808 650.454L40.3522 636.423L42.2913 636.365L46.2134 650.181L59.8997 645.826L60.9203 647.475Z" fill="url(#paint11_radial_66_4)" stroke="url(#paint12_radial_66_4)" stroke-width="2"/>
<path d="M82.87 738.516L63.5638 758.775L84.4221 777.433L57.2238 770.843L51.495 798.236L43.6028 771.386L17.0157 780.121L36.3218 759.862L15.4636 741.204L42.6619 747.794L48.3907 720.401L56.2829 747.251L82.87 738.516Z" fill="url(#paint13_radial_66_4)"/>
<path d="M82.87 738.516L63.5638 758.775L84.4221 777.433L57.2238 770.843L51.495 798.236L43.6028 771.386L17.0157 780.121L36.3218 759.862L15.4636 741.204L42.6619 747.794L48.3907 720.401L56.2829 747.251L82.87 738.516Z" fill="url(#paint14_radial_66_4)"/>
<path d="M83.5937 739.206L64.9998 758.717L85.0882 776.687L84.1867 778.405L57.992 772.057L52.4738 798.441L50.5353 798.517L42.9349 772.657L17.328 781.072L16.2916 779.431L34.8866 759.918L14.7971 741.95L15.6986 740.232L41.8945 746.578L47.4115 720.196L49.35 720.12L56.9516 745.978L82.5573 737.566L83.5937 739.206Z" stroke="url(#paint15_radial_66_4)" stroke-width="2"/>
<defs>
<linearGradient id="paint0_linear_66_4" x1="201" y1="0" x2="201" y2="874" gradientUnits="userSpaceOnUse">
<stop offset="0.418269" stop-color="#1A0051"/>
<stop offset="1" stop-color="#3A00B7"/>
</linearGradient>
<linearGradient id="paint1_linear_66_4" x1="202.5" y1="504" x2="202.5" y2="665" gradientUnits="userSpaceOnUse">
<stop stop-color="#2F08CE"/>
<stop offset="0.846154" stop-color="#220D74"/>
</linearGradient>
<radialGradient id="paint2_radial_66_4" cx="0" cy="0" r="1" gradientUnits="userSpaceOnUse" gradientTransform="translate(362.69 659.028) rotate(90) scale(20.7669 20.7669)">
<stop stop-color="#4A2CAE"/>
<stop offset="0.850962" stop-color="#D4A031"/>
</radialGradient>
<radialGradient id="paint3_radial_66_4" cx="0" cy="0" r="1" gradientUnits="userSpaceOnUse" gradientTransform="translate(362.902 660.053) rotate(121.752) scale(21.4259 21.4259)">
<stop offset="0.4" stop-color="#FFCD62"/>
<stop offset="1" stop-color="#2200BB"/>
</radialGradient>
<radialGradient id="paint4_radial_66_4" cx="0" cy="0" r="1" gradientUnits="userSpaceOnUse" gradientTransform="translate(353.472 749.984) rotate(90.5323) scale(37.75)">
<stop stop-color="#4A2CAE"/>
<stop offset="0.850962" stop-color="#D4A031"/>
</radialGradient>
<radialGradient id="paint5_radial_66_4" cx="0" cy="0" r="1" gradientUnits="userSpaceOnUse" gradientTransform="translate(354.886 761) rotate(93.7751) scale(26.7907 26.7907)">
<stop stop-color="#4A2CAE"/>
<stop offset="0.850962" stop-color="#D4A031"/>
</radialGradient>
<radialGradient id="paint6_radial_66_4" cx="0" cy="0" r="1" gradientUnits="userSpaceOnUse" gradientTransform="translate(353.84 751.853) rotate(122.284) scale(38.948)">
<stop offset="0.4" stop-color="#FFCD62"/>
<stop offset="1" stop-color="#2200BB"/>
</radialGradient>
<radialGradient id="paint7_radial_66_4" cx="0" cy="0" r="1" gradientUnits="userSpaceOnUse" gradientTransform="translate(374.981 704.229) rotate(88.5834) scale(24.3166)">
<stop stop-color="#4A2CAE"/>
<stop offset="0.850962" stop-color="#D4A031"/>
</radialGradient>
<radialGradient id="paint8_radial_66_4" cx="0" cy="0" r="1" gradientUnits="userSpaceOnUse" gradientTransform="translate(375.259 705.423) rotate(120.335) scale(25.0884 25.0884)">
<stop offset="0.4" stop-color="#FFCD62"/>
<stop offset="1" stop-color="#2200BB"/>
</radialGradient>
<radialGradient id="paint9_radial_66_4" cx="0" cy="0" r="1" gradientUnits="userSpaceOnUse" gradientTransform="translate(29.9045 702.229) rotate(91.4166) scale(24.3166)">
<stop stop-color="#4A2CAE"/>
<stop offset="0.850962" stop-color="#D4A031"/>
</radialGradient>
<radialGradient id="paint10_radial_66_4" cx="0" cy="0" r="1" gradientUnits="userSpaceOnUse" gradientTransform="translate(29.6269 703.423) rotate(59.6649) scale(25.0884 25.0884)">
<stop offset="0.4" stop-color="#FFCD62"/>
<stop offset="1" stop-color="#2200BB"/>
</radialGradient>
<radialGradient id="paint11_radial_66_4" cx="0" cy="0" r="1" gradientUnits="userSpaceOnUse" gradientTransform="translate(42.1957 657.028) rotate(90) scale(20.7669 20.7669)">
<stop stop-color="#4A2CAE"/>
<stop offset="0.850962" stop-color="#D4A031"/>
</radialGradient>
<radialGradient id="paint12_radial_66_4" cx="0" cy="0" r="1" gradientUnits="userSpaceOnUse" gradientTransform="translate(41.9838 658.053) rotate(58.2484) scale(21.4259 21.4259)">
<stop offset="0.4" stop-color="#FFCD62"/>
<stop offset="1" stop-color="#2200BB"/>
</radialGradient>
<radialGradient id="paint13_radial_66_4" cx="0" cy="0" r="1" gradientUnits="userSpaceOnUse" gradientTransform="translate(51.4132 747.984) rotate(89.4677) scale(37.75)">
<stop stop-color="#4A2CAE"/>
<stop offset="0.850962" stop-color="#D4A031"/>
</radialGradient>
<radialGradient id="paint14_radial_66_4" cx="0" cy="0" r="1" gradientUnits="userSpaceOnUse" gradientTransform="translate(50 759) rotate(86.2249) scale(26.7907 26.7907)">
<stop stop-color="#4A2CAE"/>
<stop offset="0.850962" stop-color="#D4A031"/>
</radialGradient>
<radialGradient id="paint15_radial_66_4" cx="0" cy="0" r="1" gradientUnits="userSpaceOnUse" gradientTransform="translate(51.0455 749.853) rotate(57.7161) scale(38.948)">
<stop offset="0.4" stop-color="#FFCD62"/>
<stop offset="1" stop-color="#2200BB"/>
</radialGradient>
<clipPath id="clip0_66_4">
<rect width="402" height="874" fill="white"/>
</clipPath>
<clipPath id="clip1_66_4">
<rect width="402" height="874" fill="white"/>
</clipPath>
</defs>
</svg>
