<svg width="274" height="397" viewBox="0 0 274 397" fill="none" xmlns="http://www.w3.org/2000/svg">
<rect x="1.5" y="1.5" width="271" height="394" stroke="#DA9920" stroke-width="3" stroke-dasharray="90 20"/>
<g clip-path="url(#clip0_1_24)">
<rect x="10" y="11" width="256" height="376" fill="#190E49"/>
<path d="M225.5 15L227.63 36.3586L244.238 22.7617L230.641 39.3704L252 41.5L230.641 43.6296L244.238 60.2383L227.63 46.6414L225.5 68L223.37 46.6414L206.762 60.2383L220.359 43.6296L199 41.5L220.359 39.3704L206.762 22.7617L223.37 36.3586L225.5 15Z" fill="#DA9920"/>
<path d="M225.5 321L227.63 342.359L244.238 328.762L230.641 345.37L252 347.5L230.641 349.63L244.238 366.238L227.63 352.641L225.5 374L223.37 352.641L206.762 366.238L220.359 349.63L199 347.5L220.359 345.37L206.762 328.762L223.37 342.359L225.5 321Z" fill="#DA9920"/>
<path d="M48.5 321L50.6296 342.359L67.2383 328.762L53.6414 345.37L75 347.5L53.6414 349.63L67.2383 366.238L50.6296 352.641L48.5 374L46.3704 352.641L29.7617 366.238L43.3586 349.63L22 347.5L43.3586 345.37L29.7617 328.762L46.3704 342.359L48.5 321Z" fill="#DA9920"/>
<path d="M48.5 15L50.6296 36.3586L67.2383 22.7617L53.6414 39.3704L75 41.5L53.6414 43.6296L67.2383 60.2383L50.6296 46.6414L48.5 68L46.3704 46.6414L29.7617 60.2383L43.3586 43.6296L22 41.5L43.3586 39.3704L29.7617 22.7617L46.3704 36.3586L48.5 15Z" fill="#DA9920"/>
<circle cx="93.5" cy="41.5" r="4" stroke="#DA9920"/>
<circle cx="106.5" cy="41.5" r="4.5" fill="#DA9920"/>
<circle cx="82.5" cy="41.5" r="2.5" fill="#DA9920"/>
<circle cx="18.5" cy="86.5" r="2.5" fill="#DA9920"/>
<circle cx="93.5" cy="347.5" r="4" stroke="#DA9920"/>
<circle cx="106.5" cy="347.5" r="4.5" fill="#DA9920"/>
<circle cx="82.5" cy="347.5" r="2.5" fill="#DA9920"/>
<circle cx="4.5" cy="4.5" r="4" transform="matrix(-1 0 0 1 185 37)" stroke="#DA9920"/>
<circle cx="4.5" cy="4.5" r="4" transform="matrix(-1 0 0 1 183 78)" stroke="#DA9920"/>
<circle cx="4.5" cy="4.5" r="4" transform="matrix(-1 0 0 1 100 79)" stroke="#DA9920"/>
<circle cx="4.5" cy="4.5" r="4" transform="matrix(-1 0 0 1 64 100)" stroke="#DA9920"/>
<circle cx="4.5" cy="4.5" r="4" transform="matrix(-1 0 0 1 23 73)" stroke="#DA9920"/>
<circle cx="256.5" cy="88.5" r="2.5" fill="#DA9920"/>
<circle cx="2.5" cy="2.5" r="2.5" transform="matrix(1 0 0 -1 254 308)" fill="#DA9920"/>
<circle cx="4.5" cy="4.5" r="4" transform="matrix(-1 0 0 1 261 74)" stroke="#DA9920"/>
<circle cx="256.5" cy="315.5" r="4" transform="rotate(180 256.5 315.5)" stroke="#DA9920"/>
<circle cx="2.5" cy="2.5" r="2.5" transform="matrix(1 0 0 -1 16 307)" fill="#DA9920"/>
<circle cx="18.5" cy="314.5" r="4" transform="rotate(180 18.5 314.5)" stroke="#DA9920"/>
<circle cx="4.5" cy="4.5" r="4" transform="matrix(-1 0 0 1 219 100)" stroke="#DA9920"/>
<circle cx="4.5" cy="4.5" r="4.5" transform="matrix(-1 0 0 1 172 37)" fill="#DA9920"/>
<circle cx="4.5" cy="4.5" r="4.5" transform="matrix(-1 0 0 1 202 87)" fill="#DA9920"/>
<circle cx="4.5" cy="4.5" r="4.5" transform="matrix(-1 0 0 1 163 73)" fill="#DA9920"/>
<circle cx="4.5" cy="4.5" r="4.5" transform="matrix(-1 0 0 1 120 73)" fill="#DA9920"/>
<circle cx="4.5" cy="4.5" r="4.5" transform="matrix(-1 0 0 1 80 87)" fill="#DA9920"/>
<circle cx="178.5" cy="307.5" r="4" transform="rotate(180 178.5 307.5)" stroke="#DA9920"/>
<circle cx="95.5" cy="306.5" r="4" transform="rotate(180 95.5 306.5)" stroke="#DA9920"/>
<circle cx="59.5" cy="285.5" r="4" transform="rotate(180 59.5 285.5)" stroke="#DA9920"/>
<circle cx="214.5" cy="285.5" r="4" transform="rotate(180 214.5 285.5)" stroke="#DA9920"/>
<circle cx="197.5" cy="298.5" r="4.5" transform="rotate(180 197.5 298.5)" fill="#DA9920"/>
<circle cx="158.5" cy="312.5" r="4.5" transform="rotate(180 158.5 312.5)" fill="#DA9920"/>
<circle cx="115.5" cy="312.5" r="4.5" transform="rotate(180 115.5 312.5)" fill="#DA9920"/>
<circle cx="75.5" cy="298.5" r="4.5" transform="rotate(180 75.5 298.5)" fill="#DA9920"/>
<circle cx="2.5" cy="2.5" r="2.5" transform="matrix(-1 0 0 1 194 39)" fill="#DA9920"/>
<circle cx="2.5" cy="2.5" r="2.5" transform="matrix(-1 0 0 1 128 145)" fill="#DA9920"/>
<circle cx="2.5" cy="2.5" r="2.5" transform="matrix(-1 0 0 1 154 145)" fill="#DA9920"/>
<circle cx="2.5" cy="2.5" r="2.5" transform="matrix(-1 0 0 1 187 182)" fill="#DA9920"/>
<circle cx="2.5" cy="2.5" r="2.5" transform="matrix(-1 0 0 1 174 159)" fill="#DA9920"/>
<circle cx="2.5" cy="2.5" r="2.5" transform="matrix(-1 0 0 1 187 207)" fill="#DA9920"/>
<circle cx="2.5" cy="2.5" r="2.5" transform="matrix(-1 0 0 1 174 227)" fill="#DA9920"/>
<circle cx="2.5" cy="2.5" r="2.5" transform="matrix(-1 0 0 1 154 240)" fill="#DA9920"/>
<circle cx="2.5" cy="2.5" r="2.5" transform="matrix(-1 0 0 1 126 240)" fill="#DA9920"/>
<circle cx="2.5" cy="2.5" r="2.5" transform="matrix(-1 0 0 1 102 225)" fill="#DA9920"/>
<circle cx="2.5" cy="2.5" r="2.5" transform="matrix(-1 0 0 1 93 206)" fill="#DA9920"/>
<circle cx="2.5" cy="2.5" r="2.5" transform="matrix(-1 0 0 1 91 179)" fill="#DA9920"/>
<circle cx="2.5" cy="2.5" r="2.5" transform="matrix(-1 0 0 1 104 157)" fill="#DA9920"/>
<circle cx="4.5" cy="4.5" r="4" transform="matrix(-1 0 0 1 185 343)" stroke="#DA9920"/>
<circle cx="4.5" cy="4.5" r="4.5" transform="matrix(-1 0 0 1 172 343)" fill="#DA9920"/>
<circle cx="2.5" cy="2.5" r="2.5" transform="matrix(-1 0 0 1 194 345)" fill="#DA9920"/>
<path d="M199.818 159.418C202.566 164.365 204.759 169.667 206.312 175.239L204.867 175.643C206.582 181.797 207.5 188.289 207.5 195C207.5 201.711 206.582 208.203 204.867 214.357L206.312 214.76C204.759 220.332 202.566 225.634 199.818 230.581L198.508 229.854C192.123 241.349 182.677 250.886 171.284 257.347L172.022 258.65C167.093 261.445 161.807 263.677 156.249 265.258L155.84 263.815C149.693 265.564 143.206 266.5 136.5 266.5C129.794 266.5 123.307 265.564 117.16 263.815L116.75 265.258C111.192 263.677 105.906 261.446 100.977 258.65L101.716 257.347C90.3228 250.886 80.8773 241.349 74.4922 229.854L73.1807 230.581C70.4327 225.634 68.2399 220.332 66.6875 214.76L68.1328 214.357C66.418 208.203 65.5 201.711 65.5 195C65.5 188.289 66.418 181.797 68.1328 175.643L66.6875 175.239C68.2386 169.672 70.4291 164.374 73.1738 159.431L73.1807 159.418L74.4922 160.146C80.8773 148.651 90.3228 139.114 101.716 132.653L100.977 131.349C105.906 128.554 111.192 126.322 116.75 124.741L117.16 126.185C123.307 124.436 129.794 123.5 136.5 123.5C143.206 123.5 149.693 124.436 155.84 126.185L156.249 124.741C161.807 126.322 167.093 128.554 172.022 131.349L171.284 132.653C182.677 139.114 192.123 148.651 198.508 160.146L199.818 159.418Z" stroke="#DA9920" stroke-width="3" stroke-dasharray="35 15"/>
<path d="M58 273.5L74.5 287L93 297.5L112.5 304L136.5 307L158.5 305L182.5 297.5L200 287L215 273.5" stroke="#DA9920" stroke-width="3"/>
<path d="M58 116.5L74.5 103L93 92.5L112.5 86L136.5 83L158.5 85L182.5 92.5L200 103L215 116.5" stroke="#DA9920" stroke-width="3"/>
<path d="M96 97L107 93L116.5 90.5L125.618 89.5224L138 88L149.35 89.0149L163 91.5L172.5 94L180 97" stroke="#DA9920" stroke-width="3"/>
<path d="M136.776 180.179L137.995 181.903L139.221 180.183L178.436 125.187L150.184 186.54L149.301 188.458L151.403 188.661L218.637 195.122L151.379 201.332L149.276 201.526L150.152 203.448L178.174 264.908L139.166 209.763L137.946 208.039L136.72 209.759L97.506 264.754L125.758 203.403L126.641 201.484L124.539 201.282L57.3031 194.819L124.563 188.61L126.666 188.416L125.79 186.494L97.7673 125.033L136.776 180.179Z" stroke="#DA9920" stroke-width="3"/>
<line x1="160.73" y1="181.579" x2="188.73" y2="163.579" stroke="#DA9920" stroke-dasharray="2 2"/>
<line x1="84.7296" y1="226.579" x2="112.73" y2="208.579" stroke="#DA9920" stroke-dasharray="2 2"/>
<line y1="-0.5" x2="33.2866" y2="-0.5" transform="matrix(-0.841178 -0.540758 -0.540758 0.841178 115 183)" stroke="#DA9920" stroke-dasharray="2 2"/>
<line y1="-0.5" x2="33.2866" y2="-0.5" transform="matrix(-0.841178 -0.540758 -0.540758 0.841178 189 227)" stroke="#DA9920" stroke-dasharray="2 2"/>
<line x1="137.484" y1="167.647" x2="137.512" y2="134.36" stroke="#DA9920" stroke-dasharray="2 2"/>
<line x1="136.5" y1="253.286" x2="136.528" y2="220" stroke="#DA9920" stroke-dasharray="2 2"/>
<path d="M64.726 116.582L71.5 110.5L78.5 105.5L86.5 101L93.726 97.5818" stroke="#DA9920" stroke-dasharray="2 2"/>
<path d="M210 117.44L203.226 111.358L196.226 106.358L188.226 101.858L181 98.4395" stroke="#DA9920" stroke-dasharray="2 2"/>
<path d="M96.2172 291.44L107.217 295.44L116.717 297.94L125.835 298.917L138.217 300.44L149.567 299.425L163.217 296.94L172.717 294.44L180.217 291.44" stroke="#DA9920" stroke-width="3"/>
<path d="M64.9431 271.858L71.7171 277.94L78.7172 282.94L86.7171 287.44L93.9431 290.858" stroke="#DA9920" stroke-dasharray="2 2"/>
<path d="M210.217 271L203.443 277.082L196.443 282.082L188.443 286.582L181.217 290" stroke="#DA9920" stroke-dasharray="2 2"/>
<line x1="19.5" y1="95.9921" x2="20.5" y2="284.992" stroke="#DA9920" stroke-width="3" stroke-dasharray="3 5"/>
<line x1="256.5" y1="99.9921" x2="257.5" y2="288.992" stroke="#DA9920" stroke-width="3" stroke-dasharray="3 5"/>
<line x1="256.5" y1="323" x2="256.5" y2="377" stroke="#DA9920" stroke-width="3" stroke-dasharray="3 5"/>
<line x1="209" y1="378.5" x2="71" y2="378.5" stroke="#DA9920" stroke-width="3" stroke-dasharray="3 5"/>
<line x1="206" y1="20.5" x2="69" y2="20.5" stroke="#DA9920" stroke-width="3" stroke-dasharray="3 5"/>
<line x1="19.5" y1="323" x2="19.5" y2="377" stroke="#DA9920" stroke-width="3" stroke-dasharray="3 5"/>
<line x1="19.5" y1="15" x2="19.5" y2="69" stroke="#DA9920" stroke-width="3" stroke-dasharray="3 5"/>
<line x1="257.5" y1="19" x2="257.5" y2="73" stroke="#DA9920" stroke-width="3" stroke-dasharray="3 5"/>
<circle cx="136.5" cy="68.5" r="13.5" stroke="#DA9920" stroke-width="2"/>
<circle cx="136.5" cy="320.5" r="13.5" stroke="#DA9920" stroke-width="2"/>
</g>
<rect x="11.5" y="12.5" width="253" height="373" stroke="#DA9920" stroke-width="3"/>
<defs>
<clipPath id="clip0_1_24">
<rect x="10" y="11" width="256" height="376" fill="white"/>
</clipPath>
</defs>
</svg>
