<svg width="274" height="397" viewBox="0 0 274 397" fill="none" xmlns="http://www.w3.org/2000/svg">
<rect x="1.5" y="1.5" width="271" height="394" fill="#190E49"/>
<rect x="1.5" y="1.5" width="271" height="394" stroke="#DA9920" stroke-width="3" stroke-dasharray="90 20"/>
<rect x="11.5" y="12.5" width="253" height="373" stroke="#DA9920" stroke-width="3"/>
<path d="M225.5 15L227.63 36.3586L244.238 22.7617L230.641 39.3704L252 41.5L230.641 43.6296L244.238 60.2383L227.63 46.6414L225.5 68L223.37 46.6414L206.762 60.2383L220.359 43.6296L199 41.5L220.359 39.3704L206.762 22.7617L223.37 36.3586L225.5 15Z" fill="#DA9920"/>
<path d="M225.5 321L227.63 342.359L244.238 328.762L230.641 345.37L252 347.5L230.641 349.63L244.238 366.238L227.63 352.641L225.5 374L223.37 352.641L206.762 366.238L220.359 349.63L199 347.5L220.359 345.37L206.762 328.762L223.37 342.359L225.5 321Z" fill="#DA9920"/>
<path d="M48.5 321L50.6296 342.359L67.2383 328.762L53.6414 345.37L75 347.5L53.6414 349.63L67.2383 366.238L50.6296 352.641L48.5 374L46.3704 352.641L29.7617 366.238L43.3586 349.63L22 347.5L43.3586 345.37L29.7617 328.762L46.3704 342.359L48.5 321Z" fill="#DA9920"/>
<path d="M48.5 15L50.6296 36.3586L67.2383 22.7617L53.6414 39.3704L75 41.5L53.6414 43.6296L67.2383 60.2383L50.6296 46.6414L48.5 68L46.3704 46.6414L29.7617 60.2383L43.3586 43.6296L22 41.5L43.3586 39.3704L29.7617 22.7617L46.3704 36.3586L48.5 15Z" fill="#DA9920"/>
<circle cx="93.5" cy="41.5" r="4" stroke="#DA9920"/>
<circle cx="106.5" cy="41.5" r="4.5" fill="#DA9920"/>
<circle cx="82.5" cy="41.5" r="2.5" fill="#DA9920"/>
<circle cx="18.5" cy="86.5" r="2.5" fill="#DA9920"/>
<circle cx="93.5" cy="347.5" r="4" stroke="#DA9920"/>
<circle cx="106.5" cy="347.5" r="4.5" fill="#DA9920"/>
<circle cx="82.5" cy="347.5" r="2.5" fill="#DA9920"/>
<circle cx="4.5" cy="4.5" r="4" transform="matrix(-1 0 0 1 185 37)" stroke="#DA9920"/>
<circle cx="4.5" cy="4.5" r="4" transform="matrix(-1 0 0 1 183 78)" stroke="#DA9920"/>
<circle cx="4.5" cy="4.5" r="4" transform="matrix(-1 0 0 1 100 79)" stroke="#DA9920"/>
<circle cx="4.5" cy="4.5" r="4" transform="matrix(-1 0 0 1 64 100)" stroke="#DA9920"/>
<circle cx="4.5" cy="4.5" r="4" transform="matrix(-1 0 0 1 23 73)" stroke="#DA9920"/>
<circle cx="256.5" cy="88.5" r="2.5" fill="#DA9920"/>
<circle cx="2.5" cy="2.5" r="2.5" transform="matrix(1 0 0 -1 254 308)" fill="#DA9920"/>
<circle cx="4.5" cy="4.5" r="4" transform="matrix(-1 0 0 1 261 74)" stroke="#DA9920"/>
<circle cx="256.5" cy="315.5" r="4" transform="rotate(180 256.5 315.5)" stroke="#DA9920"/>
<circle cx="2.5" cy="2.5" r="2.5" transform="matrix(1 0 0 -1 16 307)" fill="#DA9920"/>
<circle cx="18.5" cy="314.5" r="4" transform="rotate(180 18.5 314.5)" stroke="#DA9920"/>
<circle cx="4.5" cy="4.5" r="4" transform="matrix(-1 0 0 1 219 100)" stroke="#DA9920"/>
<circle cx="4.5" cy="4.5" r="4.5" transform="matrix(-1 0 0 1 172 37)" fill="#DA9920"/>
<circle cx="4.5" cy="4.5" r="4.5" transform="matrix(-1 0 0 1 202 87)" fill="#DA9920"/>
<circle cx="4.5" cy="4.5" r="4.5" transform="matrix(-1 0 0 1 163 73)" fill="#DA9920"/>
<circle cx="4.5" cy="4.5" r="4.5" transform="matrix(-1 0 0 1 120 73)" fill="#DA9920"/>
<circle cx="4.5" cy="4.5" r="4.5" transform="matrix(-1 0 0 1 80 87)" fill="#DA9920"/>
<circle cx="178.5" cy="307.5" r="4" transform="rotate(180 178.5 307.5)" stroke="#DA9920"/>
<circle cx="95.5" cy="306.5" r="4" transform="rotate(180 95.5 306.5)" stroke="#DA9920"/>
<circle cx="59.5" cy="285.5" r="4" transform="rotate(180 59.5 285.5)" stroke="#DA9920"/>
<circle cx="214.5" cy="285.5" r="4" transform="rotate(180 214.5 285.5)" stroke="#DA9920"/>
<circle cx="197.5" cy="298.5" r="4.5" transform="rotate(180 197.5 298.5)" fill="#DA9920"/>
<circle cx="158.5" cy="312.5" r="4.5" transform="rotate(180 158.5 312.5)" fill="#DA9920"/>
<circle cx="115.5" cy="312.5" r="4.5" transform="rotate(180 115.5 312.5)" fill="#DA9920"/>
<circle cx="75.5" cy="298.5" r="4.5" transform="rotate(180 75.5 298.5)" fill="#DA9920"/>
<circle cx="2.5" cy="2.5" r="2.5" transform="matrix(-1 0 0 1 194 39)" fill="#DA9920"/>
<circle cx="4.5" cy="4.5" r="4" transform="matrix(-1 0 0 1 185 343)" stroke="#DA9920"/>
<circle cx="4.5" cy="4.5" r="4.5" transform="matrix(-1 0 0 1 172 343)" fill="#DA9920"/>
<circle cx="2.5" cy="2.5" r="2.5" transform="matrix(-1 0 0 1 194 345)" fill="#DA9920"/>
<path d="M137 144.5C164.877 144.5 187.5 167.32 187.5 195.5C187.5 223.68 164.877 246.5 137 246.5C109.123 246.5 86.5 223.68 86.5 195.5C86.5 167.32 109.123 144.5 137 144.5Z" stroke="#DA9920" stroke-width="3"/>
<path d="M141.631 137.805L142.35 140.237L143.484 137.969L159.653 105.651L158.684 141.775L158.616 144.31L160.396 142.504L185.758 116.766L173.675 150.821L172.827 153.211L175.079 152.043L207.152 135.403L185.137 164.056L183.593 166.067L186.094 165.652L221.74 159.738L191.949 180.186L189.858 181.621L192.366 181.999L228.095 187.391L193.443 197.631L191.011 198.35L193.279 199.484L225.594 215.653L189.472 214.684L186.938 214.616L188.743 216.396L214.481 241.76L180.427 229.675L178.037 228.827L179.204 231.079L195.844 263.153L167.191 241.137L165.18 239.593L165.595 242.094L171.508 277.742L151.061 247.949L149.627 245.858L149.248 248.366L143.856 284.095L133.616 249.443L132.898 247.011L131.763 249.279L115.594 281.593L116.563 245.472L116.631 242.938L114.851 244.743L89.4881 270.48L101.572 236.427L102.42 234.037L100.169 235.204L68.0932 251.844L90.1096 223.191L91.6547 221.18L89.1529 221.595L53.5033 227.508L83.2983 207.061L85.3892 205.627L82.8817 205.248L47.1503 199.856L81.8048 189.616L84.2367 188.898L81.9688 187.763L49.6532 171.594L85.7749 172.563L88.31 172.631L86.5037 170.851L60.7671 145.488L94.8207 157.572L97.2108 158.42L96.0426 156.169L79.4032 124.094L108.056 146.11L110.067 147.655L109.652 145.153L103.738 109.505L124.186 139.298L125.621 141.389L125.999 138.882L131.39 103.15L141.631 137.805Z" stroke="#DA9920" stroke-width="2"/>
<path d="M58 273.5L74.5 287L93 297.5L112.5 304L136.5 307L158.5 305L182.5 297.5L200 287L215 273.5" stroke="#DA9920" stroke-width="3"/>
<path d="M58 116.5L74.5 103L93 92.5L112.5 86L136.5 83L158.5 85L182.5 92.5L200 103L215 116.5" stroke="#DA9920" stroke-width="3"/>
<path d="M96 97L107 93L116.5 90.5L125.618 89.5224L138 88L149.35 89.0149L163 91.5L172.5 94L180 97" stroke="#DA9920" stroke-width="3"/>
<path d="M64.726 116.582L71.5 110.5L78.5 105.5L86.5 101L93.726 97.5818" stroke="#DA9920" stroke-dasharray="2 2"/>
<path d="M210 117.44L203.226 111.358L196.226 106.358L188.226 101.858L181 98.4395" stroke="#DA9920" stroke-dasharray="2 2"/>
<path d="M96.2172 291.44L107.217 295.44L116.717 297.94L125.835 298.917L138.217 300.44L149.567 299.425L163.217 296.94L172.717 294.44L180.217 291.44" stroke="#DA9920" stroke-width="3"/>
<path d="M64.9431 271.858L71.7171 277.94L78.7172 282.94L86.7171 287.44L93.9431 290.858" stroke="#DA9920" stroke-dasharray="2 2"/>
<path d="M210.217 271L203.443 277.082L196.443 282.082L188.443 286.582L181.217 290" stroke="#DA9920" stroke-dasharray="2 2"/>
<line x1="19.5" y1="95.9921" x2="20.5" y2="284.992" stroke="#DA9920" stroke-width="3" stroke-dasharray="3 5"/>
<line x1="256.5" y1="99.9921" x2="257.5" y2="288.992" stroke="#DA9920" stroke-width="3" stroke-dasharray="3 5"/>
<line x1="256.5" y1="323" x2="256.5" y2="377" stroke="#DA9920" stroke-width="3" stroke-dasharray="3 5"/>
<line x1="209" y1="378.5" x2="71" y2="378.5" stroke="#DA9920" stroke-width="3" stroke-dasharray="3 5"/>
<line x1="206" y1="20.5" x2="69" y2="20.5" stroke="#DA9920" stroke-width="3" stroke-dasharray="3 5"/>
<line x1="19.5" y1="323" x2="19.5" y2="377" stroke="#DA9920" stroke-width="3" stroke-dasharray="3 5"/>
<line x1="19.5" y1="15" x2="19.5" y2="69" stroke="#DA9920" stroke-width="3" stroke-dasharray="3 5"/>
<line x1="257.5" y1="19" x2="257.5" y2="73" stroke="#DA9920" stroke-width="3" stroke-dasharray="3 5"/>
<path d="M149.507 63.118C149.641 63.3087 149.808 63.6209 150.002 64.1024C150.381 65.0469 150.803 66.4967 151.289 68.6073C151.231 76.0138 145.211 81.9999 137.791 81.9999C130.381 81.9999 124.366 76.0301 124.292 68.6376C124.896 66.5318 125.379 65.0737 125.78 64.1151C125.926 63.7658 126.054 63.5002 126.165 63.3026C126.397 63.7116 126.658 64.3073 126.999 65.0878C127.738 66.7823 128.768 69.1454 130.433 70.9384C132.124 72.7578 134.485 74.0037 137.776 73.5126C140.65 74.0163 142.829 72.6966 144.449 70.9344C146.068 69.1738 147.258 66.8363 148.169 65.1659C148.646 64.2907 149.024 63.6387 149.354 63.2372C149.404 63.1765 149.448 63.1288 149.485 63.0907C149.492 63.0996 149.5 63.1081 149.507 63.118Z" stroke="#DA9920" stroke-width="2"/>
<path d="M149.216 327.882C149.35 327.691 149.518 327.379 149.711 326.898C150.09 325.953 150.512 324.503 150.998 322.393C150.94 314.986 144.92 309 137.5 309C130.09 309 124.075 314.97 124.001 322.362C124.605 324.468 125.088 325.926 125.489 326.885C125.635 327.234 125.763 327.5 125.874 327.697C126.106 327.288 126.367 326.693 126.708 325.912C127.447 324.218 128.477 321.855 130.143 320.062C131.833 318.242 134.194 316.996 137.485 317.487C140.359 316.984 142.538 318.303 144.158 320.066C145.777 321.826 146.967 324.164 147.878 325.834C148.355 326.709 148.734 327.361 149.063 327.763C149.113 327.823 149.157 327.871 149.194 327.909C149.201 327.9 149.209 327.892 149.216 327.882Z" stroke="#DA9920" stroke-width="2"/>
<circle cx="3.5" cy="3.5" r="3.5" transform="matrix(-0.96505 0.262065 0.262065 0.96505 92.8943 105.749)" fill="#DA9920"/>
<circle cx="3.5" cy="3.5" r="3.5" transform="matrix(-0.96505 0.262065 0.262065 0.96505 142.112 92.3839)" fill="#DA9920"/>
<circle cx="3.5" cy="3.5" r="3.5" transform="matrix(-0.96505 0.262065 0.262065 0.96505 225.651 143)" fill="#DA9920"/>
<circle cx="3.5" cy="3.5" r="3.5" transform="matrix(-0.96505 0.262065 0.262065 0.96505 191.651 105)" fill="#DA9920"/>
<circle cx="3.5" cy="3.5" r="3.5" transform="matrix(-0.96505 0.262065 0.262065 0.96505 238.755 192)" fill="#DA9920"/>
<circle cx="3.5" cy="3.5" r="3.5" transform="matrix(-0.96505 0.262065 0.262065 0.96505 228.651 242)" fill="#DA9920"/>
<circle cx="3.5" cy="3.5" r="3.5" transform="matrix(-0.96505 0.262065 0.262065 0.96505 189.755 276)" fill="#DA9920"/>
<circle cx="3.5" cy="3.5" r="3.5" transform="matrix(-0.96505 0.262065 0.262065 0.96505 139.755 288)" fill="#DA9920"/>
<circle cx="3.5" cy="3.5" r="3.5" transform="matrix(-0.96505 0.262065 0.262065 0.96505 91.7554 277)" fill="#DA9920"/>
<circle cx="3.5" cy="3.5" r="3.5" transform="matrix(-0.96505 0.262065 0.262065 0.96505 54.7554 242)" fill="#DA9920"/>
<circle cx="3.5" cy="3.5" r="3.5" transform="matrix(-0.96505 0.262065 0.262065 0.96505 40.969 189.276)" fill="#DA9920"/>
<circle cx="3.5" cy="3.5" r="3.5" transform="matrix(-0.96505 0.262065 0.262065 0.96505 54.7554 143)" fill="#DA9920"/>
</svg>
